Coordinates
version=1
nRows=6
nColumns=63
inDegrees=yes

Units are S.I. units (second, meters, Newtons, ...)
If the header above contains a line with 'inDegrees', this indicates whether rotational values are in degrees (yes) or radians (no).

endheader
time	pelvis_tilt	pelvis_list	pelvis_rotation	pelvis_tx	pelvis_ty	pelvis_tz	hip_flexion_r	hip_adduction_r	hip_rotation_r	knee_angle_r	knee_angle_r_beta	ankle_angle_r	subtalar_angle_r	mtp_angle_r	hip_flexion_l	hip_adduction_l	hip_rotation_l	knee_angle_l	knee_angle_l_beta	ankle_angle_l	subtalar_angle_l	mtp_angle_l	L5_S1_Flex_Ext	L5_S1_Lat_Bending	L5_S1_axial_rotation	L4_L5_Flex_Ext	L4_L5_Lat_Bending	L4_L5_axial_rotation	L3_L4_Flex_Ext	L3_L4_Lat_Bending	L3_L4_axial_rotation	L2_L3_Flex_Ext	L2_L3_Lat_Bending	L2_L3_axial_rotation	L1_L2_Flex_Ext	L1_L2_Lat_Bending	L1_L2_axial_rotation	L1_T12_Flex_Ext	L1_T12_Lat_Bending	L1_T12_axial_rotation	Abs_r3	Abs_r2	Abs_r1	Abs_t1	Abs_t2	neck_flexion	neck_bending	neck_rotation	arm_flex_r	arm_add_r	arm_rot_r	elbow_flex_r	pro_sup_r	wrist_flex_r	wrist_dev_r	arm_flex_l	arm_add_l	arm_rot_l	elbow_flex_l	pro_sup_l	wrist_flex_l	wrist_dev_l
2.672727	-3.975997	-1.005926	91.639726	0.300098	0.698411	0.935598	0.673035	-3.105452	0.678034	5.726338	0.099943	18.995769	4.098652	0.000000	-1.644701	1.450849	-11.997737	3.491682	0.060941	15.889502	10.067122	0.000000	-0.322551	-0.524310	1.574964	-0.599009	-0.697332	1.673400	-0.529919	-1.274807	1.673400	-0.368643	-1.274807	1.378094	-0.299521	-1.069173	1.279659	-0.184306	-0.812156	1.181223	-2.303949	-5.931099	8.759480	0.000000	0.000000	15.666513	6.523055	17.883358	22.907738	-15.818448	-51.078062	149.571796	29.078161	-6.193795	1.147615	40.768440	-32.549353	-69.375633	149.890971	25.276815	17.357541	10.471126
2.690909	-4.309875	-1.202355	91.875518	0.300912	0.698163	0.935541	0.725972	-3.400303	0.415298	5.503977	0.096063	19.045857	4.052108	0.000000	-1.390880	1.706198	-12.332229	3.559277	0.062121	15.973159	10.720096	0.000000	-0.312073	-0.564605	1.453552	-0.579551	-0.750924	1.544399	-0.512705	-1.372780	1.544399	-0.356669	-1.372780	1.271858	-0.289791	-1.151342	1.181011	-0.178319	-0.874573	1.090164	-2.229109	-6.386920	8.084220	0.000000	0.000000	16.106608	6.846477	19.151715	24.078386	-15.322380	-49.963655	149.530403	31.677784	-6.513973	2.063551	41.753937	-35.767795	-72.795865	149.892734	23.577517	18.002301	11.168436
2.709091	-4.626171	-1.383397	92.101953	0.301664	0.698002	0.935441	0.745316	-3.675199	0.273818	5.256223	0.091738	19.001817	3.884349	0.000000	-1.158437	1.947600	-12.666826	3.625604	0.063279	16.036317	11.362594	0.000000	-0.303557	-0.600061	1.253887	-0.563735	-0.798081	1.332255	-0.498714	-1.458988	1.332255	-0.346935	-1.458988	1.097151	-0.281883	-1.223644	1.018783	-0.173452	-0.929494	0.940415	-2.168276	-6.788008	6.973745	0.000000	0.000000	16.492776	7.088558	20.801651	25.759016	-14.744292	-48.159531	149.499625	35.945774	-6.567042	3.848805	41.686683	-39.461661	-77.210528	149.893863	22.557414	17.893619	11.583501
2.727273	-4.920277	-1.558875	92.301784	0.302285	0.697901	0.935288	0.745254	-3.933332	0.271609	4.991308	0.087115	18.869869	3.609253	0.000000	-0.945010	2.180554	-12.983803	3.676917	0.064174	16.065934	11.954120	0.000000	-0.294173	-0.631500	0.998770	-0.546309	-0.839894	1.061193	-0.483297	-1.535428	1.061193	-0.336211	-1.535428	0.873924	-0.273169	-1.287754	0.811501	-0.168091	-0.978193	0.749077	-2.101249	-7.143649	5.554859	0.000000	0.000000	16.810053	7.330123	22.626882	27.757121	-14.221202	-45.824202	149.481350	41.227602	-6.620530	6.034504	40.657446	-43.511483	-82.305301	149.890644	21.732457	17.119765	11.733226
2.745455	-5.149740	-1.711464	92.450877	0.302744	0.697831	0.935109	0.721109	-4.130543	0.463867	4.724709	0.082462	18.643734	3.162309	0.000000	-0.767228	2.364554	-13.291616	3.711484	0.064778	16.087294	12.484655	0.000000	-0.287370	-0.652182	0.708279	-0.533675	-0.867402	0.752546	-0.472121	-1.585716	0.752546	-0.328435	-1.585716	0.619744	-0.266852	-1.329930	0.575476	-0.164203	-1.010230	0.531209	-2.052657	-7.377615	3.939233	0.000000	0.000000	17.117039	7.482811	24.616362	30.036817	-13.792898	-43.101992	149.475483	47.091577	-6.541373	8.429784	38.750983	-47.778289	-87.901050	149.884792	20.943771	15.586655	11.619904
2.763636	-5.317540	-1.840570	92.546459	0.303027	0.697761	0.934905	0.678991	-4.274234	0.785178	4.470357	0.078022	18.364678	2.637710	0.000000	-0.627635	2.507276	-13.509988	3.723696	0.064991	16.089333	12.851839	0.000000	-0.281674	-0.663752	0.407797	-0.523097	-0.882790	0.433284	-0.462762	-1.613847	0.433284	-0.321925	-1.613847	0.356822	-0.261562	-1.353523	0.331335	-0.160948	-1.028152	0.305847	-2.011968	-7.508496	2.268042	0.000000	0.000000	17.393110	7.602895	26.596087	32.467909	-13.497420	-40.252200	149.481313	53.273931	-6.118265	10.929459	36.160409	-52.110240	-93.668118	149.874878	20.386488	13.345300	11.291917
